<svg version="1.1" viewBox="0.0 0.0 960.0 720.0" fill="none" stroke="none" stroke-linecap="square" stroke-miterlimit="10" xmlns:xlink="http://www.w3.org/1999/xlink" xmlns="http://www.w3.org/2000/svg"><clipPath id="p.0"><path d="m0 0l960.0 0l0 720.0l-960.0 0l0 -720.0z" clip-rule="nonzero"/></clipPath><g clip-path="url(#p.0)"><path fill="#000000" fill-opacity="0.0" d="m0 0l960.0 0l0 720.0l-960.0 0z" fill-rule="evenodd"/><path fill="#ffffff" d="m186.63255 139.96326l0 0c0 -14.402893 12.289246 -26.078743 27.448807 -26.078743l0 0c7.279892 0 14.261597 2.7475739 19.409256 7.6382904c5.147644 4.890709 8.039566 11.523933 8.039566 18.440453l0 0c0 14.402893 -12.289246 26.078735 -27.448822 26.078735l0 0c-15.159561 0 -27.448807 -11.675842 -27.448807 -26.078735z" fill-rule="evenodd"/><path stroke="#3ec1d5" stroke-width="1.0" stroke-linejoin="round" stroke-linecap="butt" d="m186.63255 139.96326l0 0c0 -14.402893 12.289246 -26.078743 27.448807 -26.078743l0 0c7.279892 0 14.261597 2.7475739 19.409256 7.6382904c5.147644 4.890709 8.039566 11.523933 8.039566 18.440453l0 0c0 14.402893 -12.289246 26.078735 -27.448822 26.078735l0 0c-15.159561 0 -27.448807 -11.675842 -27.448807 -26.078735z" fill-rule="evenodd"/><path fill="#ffffff" d="m251.5643 227.7979l0 0c0 -14.402893 12.289246 -26.078735 27.448822 -26.078735l0 0c7.2798767 0 14.261597 2.7475739 19.40924 7.6382904c5.147644 4.8907013 8.039581 11.523941 8.039581 18.440445l0 0c0 14.402893 -12.289246 26.07875 -27.448822 26.07875l0 0c-15.159576 0 -27.448822 -11.675858 -27.448822 -26.07875z" fill-rule="evenodd"/><path stroke="#3ec1d5" stroke-width="1.0" stroke-linejoin="round" stroke-linecap="butt" d="m251.5643 227.7979l0 0c0 -14.402893 12.289246 -26.078735 27.448822 -26.078735l0 0c7.2798767 0 14.261597 2.7475739 19.40924 7.6382904c5.147644 4.8907013 8.039581 11.523941 8.039581 18.440445l0 0c0 14.402893 -12.289246 26.07875 -27.448822 26.07875l0 0c-15.159576 0 -27.448822 -11.675858 -27.448822 -26.07875z" fill-rule="evenodd"/><path fill="#ffffff" d="m311.95013 113.89501l0 0c0 -14.402893 12.289246 -26.078735 27.448822 -26.078735l0 0c7.2798767 0 14.261597 2.7475739 19.40924 7.638283c5.147644 4.890709 8.039581 11.523941 8.039581 18.440453l0 0c0 14.402885 -12.289276 26.078743 -27.448822 26.078743l0 0c-15.159576 0 -27.448822 -11.675858 -27.448822 -26.078743z" fill-rule="evenodd"/><path stroke="#3ec1d5" stroke-width="1.0" stroke-linejoin="round" stroke-linecap="butt" d="m311.95013 113.89501l0 0c0 -14.402893 12.289246 -26.078735 27.448822 -26.078735l0 0c7.2798767 0 14.261597 2.7475739 19.40924 7.638283c5.147644 4.890709 8.039581 11.523941 8.039581 18.440453l0 0c0 14.402885 -12.289276 26.078743 -27.448822 26.078743l0 0c-15.159576 0 -27.448822 -11.675858 -27.448822 -26.078743z" fill-rule="evenodd"/><path fill="#ffffff" d="m370.2047 236.0315l0 0c0 -14.402893 12.289276 -26.078735 27.448822 -26.078735l0 0c7.2798767 0 14.261597 2.7475739 19.40924 7.6382904c5.1476746 4.8907013 8.039581 11.523941 8.039581 18.440445l0 0c0 14.402893 -12.289246 26.078735 -27.448822 26.078735l0 0c-15.159546 0 -27.448822 -11.675842 -27.448822 -26.078735z" fill-rule="evenodd"/><path stroke="#3ec1d5" stroke-width="1.0" stroke-linejoin="round" stroke-linecap="butt" d="m370.2047 236.0315l0 0c0 -14.402893 12.289276 -26.078735 27.448822 -26.078735l0 0c7.2798767 0 14.261597 2.7475739 19.40924 7.6382904c5.1476746 4.8907013 8.039581 11.523941 8.039581 18.440445l0 0c0 14.402893 -12.289246 26.078735 -27.448822 26.078735l0 0c-15.159546 0 -27.448822 -11.675842 -27.448822 -26.078735z" fill-rule="evenodd"/><path fill="#ffffff" d="m425.11548 147.60104l0 0c0 -14.402878 12.289276 -26.078735 27.448822 -26.078735l0 0c7.2798767 0 14.261597 2.7475739 19.40924 7.6382904c5.1476746 4.8907166 8.039581 11.523941 8.039581 18.440445l0 0c0 14.402893 -12.289246 26.07875 -27.448822 26.07875l0 0c-15.159546 0 -27.448822 -11.675858 -27.448822 -26.07875z" fill-rule="evenodd"/><path stroke="#3ec1d5" stroke-width="1.0" stroke-linejoin="round" stroke-linecap="butt" d="m425.11548 147.60104l0 0c0 -14.402878 12.289276 -26.078735 27.448822 -26.078735l0 0c7.2798767 0 14.261597 2.7475739 19.40924 7.6382904c5.1476746 4.8907166 8.039581 11.523941 8.039581 18.440445l0 0c0 14.402893 -12.289246 26.07875 -27.448822 26.07875l0 0c-15.159546 0 -27.448822 -11.675858 -27.448822 -26.07875z" fill-rule="evenodd"/><path fill="#000000" fill-opacity="0.0" d="m233.49062 121.522804l78.45668 -7.6220474" fill-rule="evenodd"/><path stroke="#000000" stroke-width="1.0" stroke-linejoin="round" stroke-linecap="butt" d="m233.49062 121.522804l78.45668 -7.6220474" fill-rule="evenodd"/><path fill="#000000" fill-opacity="0.0" d="m233.49062 158.4037l26.110245 50.960632" fill-rule="evenodd"/><path stroke="#000000" stroke-width="1.0" stroke-linejoin="round" stroke-linecap="butt" d="m233.49062 158.4037l26.110245 50.960632" fill-rule="evenodd"/><path fill="#000000" fill-opacity="0.0" d="m433.15506 166.0415l-16.094482 51.55905" fill-rule="evenodd"/><path stroke="#000000" stroke-width="1.0" stroke-linejoin="round" stroke-linecap="butt" d="m433.15506 166.0415l-16.094482 51.55905" fill-rule="evenodd"/><path fill="#000000" fill-opacity="0.0" d="m366.84778 113.89501l66.299194 15.275597" fill-rule="evenodd"/><path stroke="#000000" stroke-width="1.0" stroke-linejoin="round" stroke-linecap="butt" d="m366.84778 113.89501l66.299194 15.275597" fill-rule="evenodd"/><path fill="#000000" fill-opacity="0.0" d="m397.65353 209.95276l-38.834625 -77.60631" fill-rule="evenodd"/><path stroke="#000000" stroke-width="1.0" stroke-linejoin="round" stroke-linecap="butt" d="m397.65353 209.95276l-38.834625 -77.60631" fill-rule="evenodd"/><path fill="#000000" fill-opacity="0.0" d="m425.11548 147.60104l-183.59055 -7.62204" fill-rule="evenodd"/><path stroke="#000000" stroke-width="1.0" stroke-linejoin="round" stroke-linecap="butt" d="m425.11548 147.60104l-183.59055 -7.62204" fill-rule="evenodd"/><path fill="#000000" fill-opacity="0.0" d="m298.42236 209.35745l134.74017 -43.3071" fill-rule="evenodd"/><path stroke="#000000" stroke-width="1.0" stroke-linejoin="round" stroke-linecap="butt" d="m298.42236 209.35745l134.74017 -43.3071" fill-rule="evenodd"/><path fill="#000000" fill-opacity="0.0" d="m198.74803 118.95538l34.740158 0l0 42.015747l-34.740158 0z" fill-rule="evenodd"/><path fill="#000000" d="m214.70116 145.87538l-1.640625 0l0 -10.453125q-0.59375 0.5625 -1.5625 1.140625q-0.953125 0.5625 -1.71875 0.84375l0 -1.59375q1.375 -0.640625 2.40625 -1.5625q1.03125 -0.921875 1.453125 -1.78125l1.0625 0l0 13.40625z" fill-rule="nonzero"/><path fill="#000000" fill-opacity="0.0" d="m324.07742 92.88714l34.740173 0l0 42.015755l-34.740173 0z" fill-rule="evenodd"/><path fill="#000000" d="m342.46805 118.22901l0 1.578125l-8.828125 0q-0.015625 -0.59375 0.1875 -1.140625q0.34375 -0.90625 1.078125 -1.78125q0.75 -0.875 2.15625 -2.015625q2.171875 -1.78125 2.9375 -2.828125q0.765625 -1.046875 0.765625 -1.96875q0 -0.984375 -0.703125 -1.640625q-0.6875 -0.671875 -1.8125 -0.671875q-1.1875 0 -1.90625 0.71875q-0.703125 0.703125 -0.703125 1.953125l-1.6875 -0.171875q0.171875 -1.890625 1.296875 -2.875q1.140625 -0.984375 3.03125 -0.984375q1.921875 0 3.046875 1.0625q1.125 1.0625 1.125 2.640625q0 0.796875 -0.328125 1.578125q-0.328125 0.78125 -1.09375 1.640625q-0.75 0.84375 -2.53125 2.34375q-1.46875 1.234375 -1.890625 1.6875q-0.421875 0.4375 -0.6875 0.875l6.546875 0z" fill-rule="nonzero"/><path fill="#000000" fill-opacity="0.0" d="m384.59842 213.12862l26.11023 0l0 42.015747l-26.11023 0z" fill-rule="evenodd"/><path fill="#000000" d="m394.37967 236.51736l1.640625 -0.21875q0.28125 1.40625 0.953125 2.015625q0.6875 0.609375 1.65625 0.609375q1.15625 0 1.953125 -0.796875q0.796875 -0.796875 0.796875 -1.984375q0 -1.125 -0.734375 -1.859375q-0.734375 -0.734375 -1.875 -0.734375q-0.46875 0 -1.15625 0.171875l0.1875 -1.4375q0.15625 0.015625 0.265625 0.015625q1.046875 0 1.875 -0.546875q0.84375 -0.546875 0.84375 -1.671875q0 -0.90625 -0.609375 -1.5q-0.609375 -0.59375 -1.578125 -0.59375q-0.953125 0 -1.59375 0.609375q-0.640625 0.59375 -0.8125 1.796875l-1.640625 -0.296875q0.296875 -1.640625 1.359375 -2.546875q1.0625 -0.90625 2.65625 -0.90625q1.09375 0 2.0 0.46875q0.921875 0.46875 1.40625 1.28125q0.5 0.8125 0.5 1.71875q0 0.859375 -0.46875 1.578125q-0.46875 0.703125 -1.375 1.125q1.1875 0.28125 1.84375 1.140625q0.65625 0.859375 0.65625 2.15625q0 1.734375 -1.28125 2.953125q-1.265625 1.21875 -3.21875 1.21875q-1.765625 0 -2.921875 -1.046875q-1.15625 -1.046875 -1.328125 -2.71875z" fill-rule="nonzero"/><path fill="#000000" fill-opacity="0.0" d="m266.56955 206.79002l24.881897 0l0 42.015747l-24.881897 0z" fill-rule="evenodd"/><path fill="#000000" d="m281.6008 233.71002l0 -3.203125l-5.796875 0l0 -1.5l6.09375 -8.65625l1.34375 0l0 8.65625l1.796875 0l0 1.5l-1.796875 0l0 3.203125l-1.640625 0zm0 -4.703125l0 -6.015625l-4.1875 6.015625l4.1875 0z" fill-rule="nonzero"/><path fill="#000000" fill-opacity="0.0" d="m437.26773 126.59318l21.039368 0l0 42.01574l-21.039368 0z" fill-rule="evenodd"/><path fill="#000000" d="m447.04898 150.01317l1.71875 -0.140625q0.1875 1.25 0.875 1.890625q0.703125 0.625 1.6875 0.625q1.1875 0 2.0 -0.890625q0.828125 -0.890625 0.828125 -2.359375q0 -1.40625 -0.796875 -2.21875q-0.78125 -0.8125 -2.0625 -0.8125q-0.78125 0 -1.421875 0.359375q-0.640625 0.359375 -1.0 0.9375l-1.546875 -0.203125l1.296875 -6.859375l6.640625 0l0 1.5625l-5.328125 0l-0.71875 3.59375q1.203125 -0.84375 2.515625 -0.84375q1.75 0 2.953125 1.21875q1.203125 1.203125 1.203125 3.109375q0 1.8125 -1.046875 3.140625q-1.296875 1.625 -3.515625 1.625q-1.8125 0 -2.96875 -1.015625q-1.15625 -1.03125 -1.3125 -2.71875z" fill-rule="nonzero"/></g></svg>